<?xml version="1.0" standalone="no"?><!DOCTYPE svg PUBLIC "-//W3C//DTD SVG 1.1//EN" "http://www.w3.org/Graphics/SVG/1.1/DTD/svg11.dtd"><svg t="1501752259343" class="icon" style="" viewBox="0 0 1024 1024" version="1.1" xmlns="http://www.w3.org/2000/svg" p-id="2266" xmlns:xlink="http://www.w3.org/1999/xlink" width="200" height="200"><defs><style type="text/css"></style></defs><path d="M201.142857 58.514286v658.285714s131.657143-160.914286 336.457143-73.142857c80.457143 43.885714 153.6 109.714286 277.942857 109.714286 124.342857 0 204.8-73.142857 204.8-73.142858V43.885714s-182.857143 182.857143-409.6 29.257143C552.228571 29.257143 449.828571-14.628571 369.371429 7.314286 281.6 29.257143 201.142857 58.514286 201.142857 58.514286M54.857143 1024c-29.257143 0-51.2-21.942857-51.2-58.514286V51.2C3.657143 21.942857 25.6 0 54.857143 0s51.2 21.942857 51.2 51.2v914.285714c7.314286 36.571429-14.628571 58.514286-51.2 58.514286z" p-id="2267" fill="#d62e19"></path></svg>